<?xml version="1.0" standalone="no"?>
<!DOCTYPE svg PUBLIC "-//W3C//DTD SVG 1.1//EN" "http://www.w3.org/Graphics/SVG/1.1/DTD/svg11.dtd" >
<svg xmlns="http://www.w3.org/2000/svg">
<metadata>Generated by IcoMoon</metadata>
<defs>
<font id="icomoon" horiz-adv-x="1024">
<font-face units-per-em="1024" ascent="960" descent="-64" />
<missing-glyph horiz-adv-x="1024" />
<glyph unicode="&#x20;" horiz-adv-x="512" d="" />
<glyph unicode="&#xe900;" glyph-name="arrow-point-down" d="M512.205 155.955c-18.432 0-36.659 6.963-50.79 21.094l-440.115 440.32c-28.058 28.058-28.058 73.523 0 101.581s73.523 28.058 101.376 0l389.53-389.734 389.53 389.53c28.058 28.058 73.523 28.058 101.376 0 28.058-28.058 28.058-73.523 0-101.581l-440.32-440.115c-13.926-14.131-32.358-21.094-50.586-21.094z" />
<glyph unicode="&#xe901;" glyph-name="arrow-point-to-left" d="M220.076 448c0 18.359 7.026 36.717 21.078 50.769l440.379 440.152c28.104 28.104 73.434 28.104 101.539 0s28.104-73.434 0-101.312l-389.836-389.61 389.61-389.61c28.104-28.104 28.104-73.434 0-101.312-28.104-28.104-73.434-28.104-101.539 0l-440.152 440.152c-14.052 14.052-21.078 32.411-21.078 50.769z" />
<glyph unicode="&#xe902;" glyph-name="arrow-point-to-right" d="M782.857 397.307l-440.304-440.29c-28.009-28.022-73.42-28.022-101.415 0-27.997 27.997-27.997 73.406 0 101.401l389.601 389.589-389.589 389.576c-27.997 28.009-27.997 73.413 0 101.41 27.997 28.009 73.406 28.009 101.415 0l440.304-440.297c13.999-14.005 20.99-32.342 20.99-50.687 0-18.354-7.005-36.704-21.001-50.703z" />
<glyph unicode="&#xe903;" glyph-name="arrows" d="M299.739-34.841l-58.319 58.319 424.501 424.522-424.501 424.522 58.319 58.319 482.841-482.841zM299.739-64l-87.478 87.478 424.501 424.522-424.501 424.522 87.478 87.478 512.021-512-512.021-512zM270.58 23.478l29.159-29.159 453.681 453.681-453.681 453.681-29.159-29.159 424.501-424.522-424.501-424.522z" />
<glyph unicode="&#xe904;" glyph-name="arrows_left" d="M241.459 448l482.918 482.918 58.163-58.368-424.346-424.55 424.346-424.55-58.163-58.368zM212.173 448l512 512 87.45-87.45-424.346-424.55 424.55-424.55-87.45-87.45-512.205 512zM328.909 448l424.55 424.55-29.082 29.082-453.837-453.632 453.632-453.632 29.082 29.082-424.346 424.55z" />
<glyph unicode="&#xe905;" glyph-name="article" d="M892.833 960h-22.022c-9.124 0-16.516-7.395-16.516-16.516s7.393-16.516 16.516-16.516h5.505v-957.935h-5.505c-9.124 0-16.516-7.395-16.516-16.516s7.393-16.516 16.516-16.516h22.022c9.124 0 16.516 7.395 16.516 16.516v990.968c0 9.121-7.395 16.516-16.516 16.516zM694.64 651.699h-453.366c-9.124 0-16.516-7.395-16.516-16.516s7.393-16.516 16.516-16.516h453.363c9.124 0 16.516 7.395 16.516 16.516s-7.393 16.516-16.514 16.516zM694.64 387.441h-453.366c-9.124 0-16.516-7.395-16.516-16.516s7.393-16.516 16.516-16.516h453.363c9.124 0 16.516 7.395 16.516 16.516s-7.393 16.516-16.514 16.516zM694.64 299.355h-182.64c-9.124 0-16.516-7.395-16.516-16.516s7.393-16.516 16.516-16.516h182.64c9.124 0 16.516 7.395 16.516 16.516s-7.395 16.516-16.516 16.516zM804.747 960h-519.43c-0.553 0-1.103-0.029-1.649-0.084-0.405-0.042-0.804-0.11-1.2-0.181-0.132-0.024-0.269-0.035-0.401-0.062-0.473-0.095-0.936-0.216-1.392-0.35-0.055-0.018-0.115-0.026-0.17-0.044-0.467-0.141-0.923-0.311-1.372-0.491-0.048-0.020-0.097-0.033-0.145-0.053-0.429-0.178-0.843-0.379-1.253-0.592-0.068-0.035-0.141-0.064-0.207-0.099-0.381-0.205-0.747-0.432-1.11-0.663-0.092-0.059-0.189-0.108-0.28-0.17-0.339-0.227-0.661-0.476-0.982-0.727-0.106-0.084-0.216-0.154-0.319-0.24-0.381-0.313-0.744-0.645-1.097-0.993-0.033-0.033-0.068-0.059-0.101-0.092l-154.151-154.151c-0.040-0.040-0.073-0.086-0.112-0.126-0.337-0.344-0.663-0.698-0.969-1.070-0.097-0.119-0.181-0.247-0.275-0.368-0.238-0.304-0.473-0.61-0.689-0.932-0.073-0.108-0.132-0.222-0.203-0.333-0.22-0.346-0.438-0.694-0.632-1.057-0.044-0.081-0.077-0.165-0.119-0.247-0.205-0.399-0.401-0.799-0.575-1.216-0.024-0.057-0.042-0.119-0.066-0.178-0.176-0.44-0.341-0.885-0.48-1.343-0.018-0.057-0.029-0.117-0.046-0.176-0.134-0.456-0.255-0.916-0.348-1.387-0.026-0.13-0.037-0.262-0.059-0.392-0.070-0.401-0.141-0.799-0.181-1.209-0.055-0.546-0.084-1.097-0.084-1.649v-836.817c0-9.121 7.393-16.516 16.516-16.516h673.578c9.124 0 16.516 7.395 16.516 16.516v990.974c0.002 9.121-7.393 16.516-16.514 16.516zM268.801 903.612v-97.762h-97.76l97.76 97.762zM788.231-30.968h-640.548v803.785h137.634c9.124 0 16.516 7.395 16.516 16.516v137.634h486.396v-957.935zM351.382 772.817h343.256c9.124 0 16.516 7.395 16.516 16.516s-7.393 16.516-16.516 16.516h-343.256c-9.124 0-16.516-7.395-16.516-16.516s7.395-16.516 16.516-16.516zM694.64 563.613h-182.64c-9.124 0-16.516-7.395-16.516-16.516s7.393-16.516 16.516-16.516h182.64c9.124 0 16.516 7.395 16.516 16.516s-7.395 16.516-16.516 16.516zM694.64 475.527h-182.64c-9.124 0-16.516-7.395-16.516-16.516s7.393-16.516 16.516-16.516h182.64c9.124 0 16.516 7.395 16.516 16.516s-7.395 16.516-16.516 16.516zM423.914 266.323c9.124 0 16.516 7.395 16.516 16.516s-7.393 16.516-16.516 16.516h-182.64c-9.124 0-16.516-7.395-16.516-16.516v-176.172c0-9.121 7.393-16.516 16.516-16.516h182.64c9.124 0 16.516 7.395 16.516 16.516v110.108c0 9.121-7.393 16.516-16.516 16.516s-16.516-7.395-16.516-16.516v-93.591h-149.608v143.14h166.124zM241.274 442.495h182.64c9.124 0 16.516 7.395 16.516 16.516s-7.393 16.516-16.516 16.516h-182.64c-9.124 0-16.516-7.395-16.516-16.516s7.395-16.516 16.516-16.516zM584.532 123.183h-72.532c-9.124 0-16.516-7.395-16.516-16.516s7.393-16.516 16.516-16.516h72.532c9.124 0 16.516 7.395 16.516 16.516s-7.395 16.516-16.516 16.516zM694.64 211.269h-182.64c-9.124 0-16.516-7.395-16.516-16.516s7.393-16.516 16.516-16.516h182.64c9.124 0 16.516 7.395 16.516 16.516s-7.395 16.516-16.516 16.516zM241.274 530.581h182.64c9.124 0 16.516 7.395 16.516 16.516s-7.393 16.516-16.516 16.516h-182.64c-9.124 0-16.516-7.395-16.516-16.516s7.395-16.516 16.516-16.516z" />
<glyph unicode="&#xe906;" glyph-name="avatar" d="M512 960c-282.304 0-511.979-229.696-511.979-512s229.675-512 511.979-512c282.284 0 511.979 229.696 511.979 512s-229.654 512-511.979 512zM807.214 165.819c0 11.837 0 20.19 0 20.19 0 69.828-80.676 95.298-123.86 113.775-15.632 6.661-45.102 20.85-75.335 35.636-10.208 4.991-19.406 18.292-20.561 29.655l-3.341 33.079c23.139 21.551 43.988 51.557 47.515 85.007h5.218c8.208 0 15.941 6.146 17.158 13.673l8.187 50.588c1.093 10.806-9.115 17.364-17.385 17.364 0.227 1.072 0.412 2.165 0.516 3.073 1.052 6.084 1.691 11.961 2.104 17.674 0.516 4.599 0.928 9.363 1.155 14.292 0.866 23.881-3.176 44.772-9.878 56.465-6.805 16.354-17.117 32.233-31.47 45.844-39.987 37.863-86.368 52.609-125.922 22.169-26.933 4.661-58.94-7.651-82.058-34.729-12.621-14.786-20.478-31.697-23.84-48.34-3.011-10.373-5.011-22.932-5.506-36.523-0.536-15.116 0.949-28.954 3.733-40.152-7.878-0.495-15.756-6.97-15.756-17.179l8.167-50.588c1.217-7.527 8.95-13.673 17.158-13.673h4.681c7.424-36.172 26.645-65.869 47.907-86.574l-3.217-31.986c-1.155-11.342-10.353-24.603-20.581-29.655-29.243-14.271-58.053-28.006-75.294-35.12-40.627-16.746-123.86-43.947-123.86-113.775v-15.797c-67.807 73.025-109.63 170.467-109.63 277.726 0 225.447 183.418 408.866 408.866 408.866 225.468 0 408.866-183.418 408.866-408.866-0.082-109.362-43.493-208.619-113.734-282.119z" />
<glyph unicode="&#xe907;" glyph-name="business" d="M976.908 927.937h-929.816c-25.967 0-47.092-21.125-47.092-47.092v-865.691c0-25.967 21.125-47.092 47.092-47.092h929.816c25.967 0 47.092 21.125 47.092 47.092v865.691c0 25.967-21.125 47.092-47.092 47.092zM47.092 897.879h929.816c9.392 0 17.033-7.641 17.033-17.033v-81.159h-963.883v81.159c0 9.392 7.641 17.033 17.033 17.033zM976.908-1.879h-929.816c-9.392 0-17.033 7.641-17.033 17.033v754.474h963.883v-754.474c0-9.392-7.641-17.033-17.033-17.033zM79.155 833.753c3.948 0 7.835 1.603 10.621 4.409 2.805 2.785 4.409 6.673 4.409 10.621s-1.603 7.835-4.409 10.621c-2.785 2.805-6.653 4.409-10.621 4.409-3.948 0-7.835-1.603-10.621-4.409-2.805-2.785-4.409-6.673-4.409-10.621s1.603-7.835 4.409-10.621c2.785-2.803 6.673-4.409 10.621-4.409zM127.249 833.753c3.948 0 7.835 1.603 10.621 4.409 2.805 2.785 4.409 6.673 4.409 10.621s-1.603 7.835-4.409 10.621c-2.785 2.805-6.653 4.409-10.621 4.409-3.948 0-7.835-1.603-10.621-4.409-2.805-2.785-4.409-6.673-4.409-10.621s1.603-7.835 4.409-10.621c2.785-2.803 6.673-4.409 10.621-4.409zM175.342 833.753c3.948 0 7.835 1.603 10.621 4.409 2.805 2.785 4.409 6.673 4.409 10.621s-1.603 7.835-4.409 10.621c-2.785 2.805-6.653 4.409-10.621 4.409-3.948 0-7.835-1.603-10.621-4.409-2.805-2.785-4.409-6.673-4.409-10.621s1.603-7.835 4.409-10.621c2.785-2.803 6.673-4.409 10.621-4.409zM430.841 415.937c0 25.967-21.125 47.092-47.092 47.092-20.712 0-38.331-13.446-44.619-32.063h-87.108c-2.196 6.501-5.769 12.366-10.378 17.252l22.145 33.219c2.132-0.22 4.278-0.373 6.449-0.373h97.48c34.806 0 63.123 28.317 63.123 63.123v112.219c0 8.3-6.729 15.029-15.029 15.029h-247.437l-7.294 14.324c-5.122 10.787-16.097 17.739-28.059 17.739h-21.805c-8.3 0-15.029-6.729-15.029-15.029s6.729-15.029 15.029-15.029h21.805c0.389 0 0.747-0.228 0.91-0.581 0.082-0.176 0.166-0.351 0.254-0.523l78.87-154.881c4.886-10.448 12.484-19.115 21.698-25.386l-19.773-29.658c-2.469 0.401-4.998 0.617-7.577 0.617-25.967 0-47.092-21.125-47.092-47.092s21.125-47.092 47.092-47.092c20.712 0 38.331 13.446 44.619 32.063h87.108c6.288-18.616 23.907-32.063 44.619-32.063 25.965 0 47.090 21.125 47.090 47.092zM183.683 641.378h217.1v-97.19c0-18.232-14.833-33.065-33.065-33.065h-97.478c-12.851 0-24.636 7.541-30.021 19.21-0.082 0.174-0.166 0.349-0.252 0.521l-56.284 110.524zM207.405 398.904c-9.392 0-17.033 7.641-17.033 17.033s7.641 17.033 17.033 17.033 17.033-7.641 17.033-17.033-7.641-17.033-17.033-17.033zM383.75 398.904c-9.392 0-17.033 7.641-17.033 17.033s7.641 17.033 17.033 17.033 17.033-7.641 17.033-17.033-7.641-17.033-17.033-17.033zM608.188 318.748h-192.376c-17.127 0-31.061-13.933-31.061-31.061v-96.188c0-17.127 13.933-31.061 31.061-31.061h192.376c17.127 0 31.061 13.933 31.061 31.061v96.188c0 17.127-13.933 31.061-31.061 31.061zM609.19 191.499c0-0.553-0.449-1.002-1.002-1.002h-192.376c-0.553 0-1.002 0.449-1.002 1.002v96.188c0 0.553 0.449 1.002 1.002 1.002h192.376c0.553 0 1.002-0.449 1.002-1.002v-96.188zM319.624 318.748h-192.376c-17.127 0-31.061-13.933-31.061-31.061v-96.188c0-17.127 13.933-31.061 31.061-31.061h192.376c17.127 0 31.061 13.933 31.061 31.061v96.188c0 17.127-13.933 31.061-31.061 31.061zM320.626 191.499c0-0.553-0.449-1.002-1.002-1.002h-192.376c-0.553 0-1.002 0.449-1.002 1.002v96.188c0 0.553 0.449 1.002 1.002 1.002h192.376c0.553 0 1.002-0.449 1.002-1.002v-96.188zM896.751 318.748h-192.376c-17.127 0-31.061-13.933-31.061-31.061v-96.188c0-17.127 13.933-31.061 31.061-31.061h192.376c17.127 0 31.061 13.933 31.061 31.061v96.188c0 17.127-13.933 31.061-31.061 31.061zM897.753 191.499c0-0.553-0.449-1.002-1.002-1.002h-192.376c-0.553 0-1.002 0.449-1.002 1.002v96.188c0 0.553 0.449 1.002 1.002 1.002h192.376c0.553 0 1.002-0.449 1.002-1.002v-96.188zM335.656 126.372h-224.438c-8.3 0-15.029-6.729-15.029-15.029s6.729-15.029 15.029-15.029h224.438c8.3 0 15.029 6.729 15.029 15.029s-6.729 15.029-15.029 15.029zM624.219 126.372h-224.438c-8.3 0-15.029-6.729-15.029-15.029s6.729-15.029 15.029-15.029h224.438c8.3 0 15.029 6.729 15.029 15.029s-6.729 15.029-15.029 15.029zM912.783 126.372h-224.438c-8.3 0-15.029-6.729-15.029-15.029s6.729-15.029 15.029-15.029h224.438c8.3 0 15.029 6.729 15.029 15.029s-6.729 15.029-15.029 15.029zM800.564 62.247h-112.219c-8.3 0-15.029-6.729-15.029-15.029s6.729-15.029 15.029-15.029h112.219c8.3 0 15.029 6.729 15.029 15.029s-6.729 15.029-15.029 15.029zM512 62.247h-112.219c-8.3 0-15.029-6.729-15.029-15.029s6.729-15.029 15.029-15.029h112.219c8.3 0 15.029 6.729 15.029 15.029s-6.729 15.029-15.029 15.029zM223.436 62.247h-112.219c-8.3 0-15.029-6.729-15.029-15.029s6.729-15.029 15.029-15.029h112.219c8.3 0 15.029 6.729 15.029 15.029s-6.729 15.029-15.029 15.029zM528.031 673.44h144.282c8.3 0 15.029 6.729 15.029 15.029s-6.729 15.029-15.029 15.029h-144.282c-8.3 0-15.029-6.729-15.029-15.029s6.729-15.029 15.029-15.029zM912.783 639.374h-384.751c-8.3 0-15.029-6.729-15.029-15.029s6.729-15.029 15.029-15.029h384.751c8.3 0 15.029 6.729 15.029 15.029s-6.729 15.029-15.029 15.029zM912.783 543.186h-304.595c-8.3 0-15.029-6.729-15.029-15.029s6.729-15.029 15.029-15.029h304.595c8.3 0 15.029 6.729 15.029 15.029s-6.729 15.029-15.029 15.029zM912.783 479.061h-304.595c-8.3 0-15.029-6.729-15.029-15.029s6.729-15.029 15.029-15.029h304.595c8.3 0 15.029 6.729 15.029 15.029s-6.729 15.029-15.029 15.029zM912.783 414.935h-304.595c-8.3 0-15.029-6.729-15.029-15.029s6.729-15.029 15.029-15.029h304.595c8.3 0 15.029 6.729 15.029 15.029s-6.729 15.029-15.029 15.029zM528.031 513.127h16.031c8.3 0 15.029 6.729 15.029 15.029s-6.729 15.029-15.029 15.029h-16.031c-8.3 0-15.029-6.729-15.029-15.029s6.729-15.029 15.029-15.029zM528.031 449.002h16.031c8.3 0 15.029 6.729 15.029 15.029s-6.729 15.029-15.029 15.029h-16.031c-8.3 0-15.029-6.729-15.029-15.029s6.729-15.029 15.029-15.029zM528.031 384.877h16.031c8.3 0 15.029 6.729 15.029 15.029s-6.729 15.029-15.029 15.029h-16.031c-8.3 0-15.029-6.729-15.029-15.029s6.729-15.029 15.029-15.029z" />
<glyph unicode="&#xe908;" glyph-name="cancel-music" d="M633.703 448l365.094 365.094c33.607 33.607 33.607 88.095 0 121.698-33.607 33.607-88.091 33.607-121.698 0l-365.099-365.099-365.099 365.104c-33.607 33.607-88.091 33.607-121.698 0-33.603-33.607-33.603-88.095 0-121.698l365.099-365.094-365.099-365.099c-33.603-33.607-33.603-88.095 0-121.698 33.607-33.607 88.091-33.607 121.698 0l365.099 365.099 365.099-365.099c33.603-33.607 88.091-33.607 121.698 0s33.607 88.091 0 121.698l-365.094 365.094z" />
<glyph unicode="&#xe909;" glyph-name="check" d="M325.818 221.091l-244.364 244.364-81.455-81.455 325.818-325.818 698.182 698.182-81.455 81.455z" />
<glyph unicode="&#xe90a;" glyph-name="cinema" d="M512 960l138.927-391.121h373.073l-304.384-229.69 108.812-403.188-316.428 241.734-316.404-241.734 108.788 403.188-304.384 229.69h373.073z" />
<glyph unicode="&#xe90b;" glyph-name="command" d="M804.331 258.843c-0.599 0.168-1.21 0.299-1.826 0.391l-125.056 18.763c-20.223 13.084-22.131 45.535-22.169 80.676 39.493 40.706 64.125 98.009 64.125 161.399v5.134c30.652 27.219 48.094 65.839 48.094 107.085v96.188c0 79.004-64.276 143.28-143.28 143.28h-208.407c-29.916 0-55.037-20.921-61.506-48.898-55.023-6.647-97.805-53.629-97.805-110.414v-80.157c0-41.253 17.44-79.868 48.094-107.087v-5.132c0-63.39 24.632-120.694 64.123-161.399-0.036-35.141-1.946-67.59-22.169-80.676l-125.056-18.763c-0.615-0.092-1.224-0.222-1.826-0.391-27.504-7.705-50.905-24.76-67.676-49.326-15.308-22.424-23.74-49.493-23.74-76.221v-62.101c0-25.891 23.097-46.954 51.487-46.954h664.524c28.389 0 51.487 21.063 51.487 46.954v62.101c0 26.726-8.432 53.795-23.74 76.219-16.769 24.566-40.172 41.623-67.676 49.328zM512 296.634c41.962 0 81.044 13.506 113.722 36.678 1.445-27.43 7.126-57.863 29.433-76.205-12.064-61.416-72.003-106.759-143.156-106.759s-131.092 45.343-143.156 106.759c22.31 18.342 27.989 48.775 29.433 76.205 32.678-23.171 71.76-36.678 113.722-36.678zM334.654 530.708c0.084 0.916 0.082 1.832 0 2.743v82.81c0 27.071 22.025 49.096 49.096 49.096h272.532c8.3 0 15.029 6.727 15.029 15.029 0 8.3-6.729 15.029-15.029 15.029h-272.532c-43.645 0-79.155-35.509-79.155-79.155v-45.298c-11.657 18.045-18.035 39.201-18.035 61.33v80.157c0 44.751 36.407 81.159 81.159 81.159 8.3 0 15.029 6.727 15.029 15.029 0 18.232 14.833 33.065 33.065 33.065h208.407c62.43 0 113.221-50.791 113.221-113.221v-96.188c0-22.125-6.378-43.281-18.035-61.328v61.328c0 8.3-6.729 15.029-15.029 15.029s-15.029-6.729-15.029-15.029v-112.219c0-106.628-79.557-193.378-177.346-193.378s-177.346 86.749-177.346 193.378v10.635zM865.691 71.194c0-9.158-9.813-16.895-21.428-16.895h-664.526c-11.615 0-21.428 7.737-21.428 16.895v62.101c0 38.090 23.562 83.249 68.604 96.356l113.395 17.013c16.811-73.025 87.874-126.375 171.691-126.375s154.881 53.35 171.691 126.375l113.395-17.013c45.042-13.108 68.604-58.266 68.604-96.356v-62.101zM95.186 198.443h-56.568c-4.898 0-8.559 2.968-8.559 5.625v40.18c0 22.566 13.813 49.274 40.229 57.15l81.812 12.274c0.355 0.052 0.697 0.132 1.044 0.21 0.15 0.034 0.303 0.052 0.453 0.090 0.561 0.142 1.104 0.323 1.635 0.525 0.128 0.048 0.254 0.108 0.381 0.162 0.437 0.18 0.862 0.379 1.276 0.597 0.068 0.036 0.142 0.060 0.21 0.098 0.132 0.072 0.252 0.152 0.385 0.226 0.112 0.066 0.224 0.128 0.335 0.196 18.21 10.388 24.512 29.199 26.682 47.581 19.951-11.839 42.86-18.598 67.219-18.598 20.446 0 40.152 4.645 58.572 13.809 7.431 3.697 10.46 12.717 6.763 20.149s-12.719 10.46-20.151 6.763c-14.224-7.074-29.427-10.663-45.184-10.663-60.348 0-109.442 53.747-109.442 119.81v64.109c0 14.59 11.869 26.46 26.46 26.46h38.668c8.3 0 15.029 6.727 15.029 15.029 0 8.3-6.729 15.029-15.029 15.029h-38.668c-31.165 0-56.518-25.354-56.518-56.518v-7.877c-1.307 5.294-2.004 10.779-2.004 16.374v51.861c0 26.029 21.175 47.204 47.204 47.204 8.3 0 15.029 6.729 15.029 15.029 0 8.871 7.216 16.087 16.087 16.087h18.869c8.3 0 15.029 6.727 15.029 15.029 0 8.3-6.729 15.029-15.029 15.029h-18.869c-20.582 0-38.060-13.544-43.99-32.189-36.497-6.146-64.39-37.972-64.39-76.191v-51.861c0-27.84 11.619-53.913 32.063-72.488v-0.12c0-42.619 16.673-81.108 43.345-108.422-0.162-19.113-1.625-36.247-11.074-43.283l-79.644-11.949c-0.615-0.092-1.224-0.222-1.826-0.391-41.375-11.591-63.021-52.204-63.021-86.335v-40.18c0-19.674 17.324-35.684 38.617-35.684h56.568c8.3 0 15.029 6.727 15.029 15.029 0 8.3-6.729 15.029-15.029 15.029zM960.979 330.585c-0.599 0.166-1.21 0.299-1.826 0.391l-79.644 11.949c-9.448 7.036-10.913 24.169-11.076 43.281 26.672 27.315 43.345 65.805 43.345 108.424v0.12c20.444 18.574 32.063 44.649 32.063 72.504v81.070c0 43.645-35.509 79.155-79.155 79.155h-48.094c-8.3 0-15.029-6.729-15.029-15.029 0-8.302 6.729-15.029 15.029-15.029h48.094c27.071 0 49.096-22.025 49.096-49.096v-81.086c0-5.595-0.697-11.080-2.004-16.374v7.877c0 31.165-25.354 56.518-56.518 56.518h-38.666c-8.3 0-15.029-6.729-15.029-15.029 0-8.302 6.729-15.029 15.029-15.029h38.668c14.59 0 26.46-11.869 26.46-26.46v-64.109c0-66.063-49.094-119.81-109.438-119.81-15.759 0-30.96 3.589-45.184 10.663-7.435 3.697-16.454 0.667-20.151-6.763-3.697-7.433-0.667-16.452 6.763-20.149 18.42-9.162 38.126-13.809 58.572-13.809 24.358 0 47.268 6.759 67.217 18.598 2.17-18.38 8.475-37.193 26.684-47.581 0.108-0.068 0.222-0.13 0.333-0.196 0.13-0.074 0.252-0.154 0.385-0.226 0.068-0.038 0.142-0.062 0.21-0.098 0.413-0.218 0.838-0.417 1.274-0.597 0.128-0.054 0.254-0.114 0.383-0.162 0.531-0.202 1.072-0.383 1.633-0.525 0.152-0.038 0.305-0.058 0.457-0.092 0.343-0.076 0.685-0.156 1.038-0.208l81.81-12.274c26.418-7.875 40.231-34.584 40.231-57.15v-40.18c0-2.655-3.661-5.625-8.559-5.625h-56.566c-8.3 0-15.029-6.729-15.029-15.029 0-8.302 6.729-15.029 15.029-15.029h56.568c21.294 0 38.617 16.007 38.617 35.684v40.18c0 34.129-21.646 74.742-63.021 86.335z" />
<glyph unicode="&#xe90c;" glyph-name="comments" d="M604.296 304.308c61.906 26.095 110.762 61.616 146.565 106.575 35.809 44.949 53.714 93.9 53.714 146.853 0 52.955-17.905 101.904-53.714 146.861-35.803 44.951-84.659 80.476-146.565 106.577-61.906 26.097-129.238 39.141-202.006 39.141-72.762 0-140.094-13.052-202.004-39.149-61.902-26.097-110.76-61.622-146.565-106.575-35.813-44.951-53.72-93.898-53.72-146.855 0-45.33 13.538-88.015 40.582-128.009 27.044-40 64.19-73.721 111.425-101.145-3.807-9.151-7.712-17.521-11.713-25.151-4.003-7.618-8.761-14.945-14.289-21.998-5.524-7.055-9.805-12.575-12.856-16.562-3.048-3.999-8-9.625-14.859-16.857-6.861-7.239-11.244-12.001-13.144-14.281 0 0.382-0.767-0.48-2.288-2.576-1.527-2.096-2.384-3.042-2.576-2.864-0.188 0.206-0.953-0.747-2.284-2.842-1.333-2.098-2.001-3.144-2.001-3.144l-1.431-2.848c-0.568-1.137-0.953-2.276-1.141-3.427-0.192-1.135-0.288-2.382-0.288-3.711s0.188-2.562 0.572-3.711c0.767-4.946 2.956-8.939 6.573-12.001 3.621-3.042 7.52-4.561 11.717-4.561h1.715c19.044 2.666 35.428 5.712 49.141 9.145 58.668 15.239 111.625 39.623 158.862 73.144 34.282-6.097 67.81-9.143 100.571-9.143 72.762-0.024 140.102 13.016 202.006 39.113zM284.58 352.014l-25.147-17.705c-10.668-7.233-22.471-14.673-35.426-22.297l20.005 48.008-55.429 32c-36.579 21.328-64.956 46.473-85.147 75.426-20.193 28.952-30.285 59.048-30.285 90.289 0 38.863 14.959 75.244 44.861 109.149 29.898 33.905 70.186 60.761 120.854 80.578 50.664 19.805 105.142 29.716 163.428 29.716s112.768-9.911 163.43-29.716c50.664-19.815 90.952-46.673 120.866-80.578 29.902-33.903 44.849-70.284 44.849-109.149 0-38.857-14.947-75.236-44.849-109.141-29.912-33.915-70.2-60.765-120.866-80.572-50.662-19.809-105.138-29.714-163.43-29.714-28.565 0-57.709 2.672-87.427 8l-30.287 5.706zM983.426 283.184c27.056 39.822 40.574 82.571 40.574 128.291 0 46.857-14.289 90.673-42.85 131.43-28.575 40.754-67.438 74.666-116.577 101.714 8.755-28.569 13.136-57.521 13.136-86.861 0-51.044-12.745-99.426-38.286-145.146-25.523-45.706-62.096-86.084-109.714-121.138-44.193-32-94.48-56.564-150.866-73.713-56.37-17.137-115.232-25.715-176.567-25.715-11.425 0-28.189 0.755-50.281 2.276 76.569-50.275 166.478-75.426 269.713-75.426 32.766 0 66.287 3.054 100.577 9.149 47.235-33.535 100.195-57.905 158.858-73.152 13.714-3.439 30.096-6.479 49.145-9.143 4.569-0.39 8.769 0.953 12.575 3.993 3.809 3.054 6.289 7.233 7.426 12.561-0.178 2.288 0 3.543 0.574 3.725 0.562 0.18 0.466 1.425-0.288 3.707-0.753 2.29-1.137 3.433-1.137 3.433l-1.425 2.85c-0.396 0.753-1.041 1.807-1.999 3.136-0.953 1.321-1.711 2.282-2.288 2.856-0.56 0.568-1.411 1.527-2.562 2.85-1.137 1.321-1.903 2.186-2.288 2.568-1.903 2.288-6.283 7.047-13.138 14.289-6.863 7.231-11.807 12.85-14.855 16.849-3.048 4.001-7.335 9.521-12.858 16.576-5.52 7.041-10.288 14.377-14.289 21.998-3.999 7.618-7.904 16.002-11.713 25.139 47.223 27.452 84.375 61.069 111.403 100.905z" />
<glyph unicode="&#xe90d;" glyph-name="create-new-pencil-button" d="M0 152.178v-216.178h216.178l625.778 631.467-216.178 216.178-625.778-631.467zM1006.933 732.444c22.756 22.756 22.756 56.889 0 79.644l-130.844 130.847c-22.756 22.756-56.889 22.756-79.644 0l-102.4-102.4 216.178-216.178 96.711 108.087z" />
<glyph unicode="&#xe90e;" glyph-name="down-arrow" d="M486.4-52.941c13.926-14.336 37.069-14.336 50.995 0l323.584 323.584c14.336 13.926 14.336 37.069 0 51.61-13.926 13.926-37.069 13.926-51.61 0l-260.915-261.734v863.437c0 20.070-16.589 36.045-36.659 36.045s-36.045-15.974-36.25-36.045v-863.437l-261.734 261.734c-13.926 13.926-37.069 13.926-50.995 0-14.336-14.336-14.336-37.683 0-51.61l323.584-323.584z" />
<glyph unicode="&#xe90f;" glyph-name="email-filled-closed-envelope" d="M513.285 379.71h0.219c7.722 0 15.353 2.24 21.527 6.32l1.675 1.076c0.365 0.238 0.746 0.453 1.129 0.709l19.506 16.138 465.584 384.207c-0.964 1.33-2.605 2.24-4.354 2.24h-1013.163c-1.257 0-2.423-0.455-3.351-1.22l487.111-401.492c6.139-5.083 14.898-7.98 24.116-7.98zM0 735.96v-569.508l348.946 281.886-348.946 287.622zM675.418 446.426l348.582-280.119v567.759l-348.582-287.64zM564.59 354.995c-13.896-11.401-32.072-17.686-51.16-17.686-19.16 0-37.319 6.248-51.178 17.595l-79.921 65.914-382.332-308.808v-0.982c0-2.933 2.513-5.428 5.481-5.428h1013.109c2.913 0 5.408 2.495 5.408 5.446v0.91l-382.002 306.929-77.406-63.891z" />
<glyph unicode="&#xe910;" glyph-name="excavator" d="M65.145 57.129c0-26.38 21.461-47.841 47.841-47.841s47.841 21.461 47.841 47.841c0 17.017-9.155 32.888-23.89 41.42-7.251 4.2-15.535 6.421-23.951 6.421-26.38 0-47.841-21.461-47.841-47.841zM130.29 57.129c0-9.542-7.762-17.304-17.304-17.304s-17.304 7.762-17.304 17.304 7.762 17.304 17.304 17.304c3.050 0 6.038-0.798 8.648-2.311 5.34-3.090 8.656-8.837 8.656-14.994zM243.276 9.288c26.38 0 47.841 21.461 47.841 47.841 0 17.017-9.155 32.888-23.89 41.42-7.254 4.2-15.535 6.421-23.951 6.421-26.38 0-47.841-21.461-47.841-47.841s21.461-47.841 47.841-47.841zM243.276 74.433c3.050 0 6.038-0.798 8.648-2.311 5.34-3.092 8.656-8.837 8.656-14.994 0-9.542-7.762-17.304-17.304-17.304s-17.304 7.762-17.304 17.304 7.762 17.304 17.304 17.304zM373.567 9.288c26.38 0 47.841 21.461 47.841 47.841 0 17.017-9.155 32.888-23.89 41.42-7.254 4.2-15.535 6.421-23.951 6.421-26.38 0-47.841-21.461-47.841-47.841s21.461-47.841 47.841-47.841zM373.567 74.433c3.050 0 6.038-0.798 8.648-2.311 5.34-3.092 8.656-8.837 8.656-14.994 0-9.542-7.762-17.304-17.304-17.304s-17.304 7.762-17.304 17.304 7.762 17.304 17.304 17.304zM503.857 9.288c26.38 0 47.841 21.461 47.841 47.841 0 17.017-9.155 32.888-23.89 41.42-7.254 4.2-15.535 6.421-23.951 6.421-26.38 0-47.841-21.461-47.841-47.841s21.461-47.841 47.841-47.841zM503.857 74.433c3.050 0 6.038-0.798 8.648-2.311 5.34-3.092 8.656-8.837 8.656-14.994 0-9.542-7.762-17.304-17.304-17.304s-17.304 7.762-17.304 17.304 7.762 17.304 17.304 17.304zM129.272 318.728h16.286c8.432 0 15.268 6.836 15.268 15.268s-6.836 15.268-15.268 15.268h-16.286c-8.432 0-15.268-6.836-15.268-15.268s6.836-15.268 15.268-15.268zM129.272 269.869h16.286c8.432 0 15.268 6.836 15.268 15.268s-6.836 15.268-15.268 15.268h-16.286c-8.432 0-15.268-6.836-15.268-15.268s6.836-15.268 15.268-15.268zM1017.522 423.133l-259.63 490.594c-9.994 22.438-32.493 38.13-58.6 38.13-21.864 0-41.2-11.007-52.78-27.764-0.026-0.035-0.055-0.063-0.081-0.098l-248.439-331.123c-3.432 0.446-6.914 0.686-10.431 0.686h-111.712c-44.339 0-80.414-36.074-80.414-80.414v-98.736h-98.736c-26.38 0-47.841-21.461-47.841-47.841v-114.004c0-26.38 21.461-47.841 47.841-47.841h131.308v-34.608h-115.022c-62.301 0-112.986-50.685-112.986-112.986s50.685-112.986 112.986-112.986h390.871c62.301 0 112.986 50.685 112.986 112.986s-50.685 112.986-112.986 112.986h-115.022v34.608h131.308c8.432 0 15.268 6.836 15.268 15.268v49.875l17.306 0.002c0.206 0 0.405 0.022 0.609 0.031 0.318 0.012 0.637 0.016 0.951 0.049 0.161 0.016 0.314 0.051 0.472 0.071 0.348 0.047 0.7 0.090 1.040 0.159 0.277 0.057 0.546 0.138 0.816 0.21 0.216 0.057 0.436 0.102 0.647 0.167 0.167 0.053 0.326 0.122 0.491 0.179 0.307 0.106 0.615 0.208 0.912 0.334 0.035 0.014 0.067 0.035 0.104 0.049 0.875 0.379 1.71 0.831 2.49 1.358 0.195 0.132 0.379 0.283 0.568 0.423 0.204 0.151 0.413 0.293 0.609 0.454 0.208 0.171 0.399 0.36 0.596 0.542 0.163 0.149 0.332 0.289 0.489 0.444 0.143 0.143 0.269 0.297 0.405 0.446 0.195 0.212 0.397 0.417 0.58 0.639 0.067 0.081 0.124 0.171 0.189 0.254 0.238 0.301 0.474 0.603 0.688 0.922 0.098 0.145 0.179 0.299 0.273 0.448 0.169 0.267 0.34 0.531 0.493 0.81 0.855 1.574 1.425 3.322 1.682 5.171 0.096 0.69 0.163 1.39 0.163 2.107v58.272c0 28.833-8.453 56.752-24.448 80.743l-24.197 36.294 167.741 281.616 247.745-366.963c5.786-9.91 15.028-17.557 26.066-21.286v-25.211l-4.454 11.085c-1.511 3.758-4.45 6.761-8.174 8.351-3.725 1.592-7.929 1.635-11.685 0.126l-208.66-83.823-35.948 29.637c-6.506 5.364-16.13 4.438-21.494-2.068s-4.438-16.13 2.068-21.494l112.697-92.909c20.59-16.974 46.070-25.816 71.869-25.816 14.198 0 28.495 2.679 42.122 8.153l51.959 20.873c22.402 9 36.943 29.299 39.726 51.715 0.32 1.232 0.509 2.516 0.509 3.848v117.534c18.912 6.388 32.573 24.287 32.573 45.329 0 8.74-2.368 16.934-6.478 23.992zM195.435 235.26h-98.736c-9.542 0-17.304 7.762-17.304 17.304v114.004c0 9.542 7.762 17.304 17.304 17.304h98.736v-148.612zM939.808 209.052l-51.959-20.873c-28.012-11.256-59.887-6.317-83.182 12.891l-49.909 41.145 179.035 71.922 24.664-61.393c6.905-17.188-1.462-36.789-18.648-43.692zM699.292 921.32c12.567 0 23.528-6.948 29.287-17.192 0.228-0.605 0.48-1.203 0.79-1.789l0.983-1.859c1.623-3.935 2.53-8.237 2.53-12.75 0-6.348-1.802-12.268-4.874-17.337-0.098-0.151-0.204-0.291-0.297-0.446l-0.639-1.073c-6.050-8.886-16.244-14.735-27.78-14.735-18.522 0-33.59 15.069-33.59 33.59s15.069 33.59 33.59 33.59zM503.857 139.579c45.463 0 82.449-36.986 82.449-82.449s-36.986-82.449-82.449-82.449h-390.871c-45.463 0-82.449 36.986-82.449 82.449s36.986 82.449 82.449 82.449h390.871zM258.545 170.115v34.608h99.753v-34.608h-99.753zM504.875 235.26h-278.903v163.801c0 0.026 0.004 0.051 0.004 0.079s-0.004 0.053-0.004 0.079v113.925c0 22.178 14.554 41.013 34.608 47.477v-219.313c0-18.167 10.727-34.673 27.326-42.051 43.875-19.501 90.464-29.389 138.478-29.389h78.49v-34.608zM537.447 343.409v-43.004h-111.062c-18.2 0-36.17 1.584-53.836 4.686v208.053c0 8.432-6.836 15.268-15.268 15.268s-15.268-6.836-15.268-15.268v-201.062c-14.155 4.008-28.076 9.023-41.701 15.079-5.584 2.482-9.194 8.035-9.194 14.147v221.713h96.445c16.714 0 32.229-8.304 41.499-22.21l89.068-133.598c12.638-18.957 19.318-41.021 19.318-63.804zM500.569 488.602l-46.1 69.15c-6.85 10.277-15.832 18.627-26.129 24.688l211.347 281.686c9.422-23.709 32.581-40.522 59.606-40.522 0.277 0 0.552 0.018 0.827 0.020l-199.55-335.021zM936.956 426.514l-232.605 344.54 48.824 81.969c0.423 0.656 0.841 1.315 1.242 1.987l216.117-408.372c-13.87-1.631-25.936-9.214-33.578-20.124zM976.159 381.837c-9.542 0-17.304 7.762-17.304 17.304s7.762 17.304 17.304 17.304 17.304-7.762 17.304-17.304-7.762-17.304-17.304-17.304z" />
<glyph unicode="&#xe911;" glyph-name="home" d="M512.001 690.953l-365.205-301.073c0-0.425-0.107-1.050-0.32-1.902-0.209-0.845-0.32-1.459-0.32-1.895v-304.868c0-11.008 4.024-20.547 12.071-28.58 8.044-8.038 17.57-12.082 28.58-12.082h243.888v243.902h162.615v-243.911h243.886c11.008 0 20.547 4.036 28.58 12.091 8.047 8.024 12.084 17.57 12.084 28.58v304.868c0 1.691-0.231 2.968-0.641 3.797l-365.219 301.073zM1016.937 458.479l-139.090 115.597v259.143c0 5.924-1.904 10.796-5.726 14.609-3.791 3.809-8.663 5.713-14.6 5.713h-121.946c-5.931 0-10.801-1.904-14.616-5.713-3.806-3.813-5.708-8.687-5.708-14.609v-123.853l-154.974 129.575c-13.535 11.010-29.628 16.514-48.262 16.514-18.631 0-34.722-5.504-48.27-16.514l-456.687-380.462c-4.234-3.381-6.554-7.933-6.985-13.65-0.429-5.713 1.050-10.703 4.443-14.934l39.379-47.002c3.393-3.809 7.833-6.138 13.339-6.99 5.083-0.427 10.167 1.059 15.25 4.445l439.52 366.493 439.524-366.491c3.395-2.954 7.833-4.429 13.339-4.429h1.909c5.497 0.836 9.929 3.181 13.339 6.981l39.383 46.996c3.386 4.24 4.87 9.221 4.429 14.941-0.434 5.702-2.763 10.253-6.988 13.642z" />
<glyph unicode="&#xe912;" glyph-name="interface" d="M361.73 527.518c13.181 0 23.868-10.687 23.868-23.868s-10.687-23.868-23.868-23.868h-79.279c-13.181 0-23.868 10.687-23.868 23.868s10.687 23.868 23.868 23.868h79.279zM448.023 63.759h45.144c13.181 0 23.868 10.687 23.868 23.868s-10.687 23.868-23.868 23.868h-45.144c-13.181 0-23.868-10.687-23.868-23.868s10.687-23.868 23.868-23.868zM747.475 608.933c4.72-5.46 11.373-8.256 18.065-8.256 5.532 0 11.090 1.912 15.601 5.815 9.971 8.622 11.063 23.695 2.438 33.667-23.612 27.303-22.436 89.453 2.423 127.893 31.653 48.951 38.443 136.432-2.42 183.692-8.62 9.965-23.689 11.063-33.667 2.444-9.971-8.622-11.066-23.695-2.444-33.667 23.179-26.804 22.407-89.492-1.554-126.551-32.745-50.631-39.929-137.068 1.557-185.037zM640.803 608.933c4.72-5.46 11.373-8.256 18.065-8.256 5.532 0 11.090 1.912 15.601 5.815 9.971 8.622 11.063 23.695 2.438 33.667-23.606 27.297-22.43 89.45 2.417 127.89 31.659 48.942 38.458 136.423-2.414 183.695-8.62 9.971-23.689 11.066-33.667 2.447-9.971-8.62-11.066-23.692-2.444-33.667 23.182-26.813 22.41-89.498-1.56-126.554-32.733-50.64-39.917-137.077 1.563-185.037zM294.415-16.263h-170.982c-40.215 0-72.927 32.712-72.927 72.921v722.95c0 40.209 32.715 72.921 72.927 72.921h406.677c13.181 0 23.868 10.687 23.868 23.868s-10.687 23.868-23.868 23.868h-406.677c-66.536 0-120.664-54.128-120.664-120.658v-722.953c0-66.53 54.131-120.658 120.664-120.658h170.982c13.181 0 23.868 10.687 23.868 23.868s-10.69 23.871-23.868 23.871zM473.512 626.614c0 13.181-10.687 23.868-23.868 23.868h-167.193c-13.181 0-23.868-10.687-23.868-23.868s10.687-23.868 23.868-23.868h167.193c13.181 0 23.868 10.687 23.868 23.868zM553.979 753.185c0 13.181-10.687 23.868-23.868 23.868h-362.682c-13.181 0-23.868-10.687-23.868-23.868v-665.558c0-13.181 10.687-23.868 23.868-23.868h79.962c13.181 0 23.868 10.687 23.868 23.868s-10.687 23.868-23.868 23.868h-56.094v617.821h338.813c13.181 0 23.868 10.687 23.868 23.868zM997.366-16.26h-570.397c-13.181 0-23.868-10.687-23.868-23.868s10.687-23.868 23.868-23.868h570.397c13.181 0 23.868 10.687 23.868 23.868s-10.687 23.868-23.868 23.868zM1021.234 451.115v-155.473c0-13.181-10.687-23.868-23.868-23.868h-85.879v-8.697c0-109.905-89.414-199.32-199.317-199.32-109.905 0-199.32 89.414-199.32 199.32v240.579c0 13.181 10.687 23.868 23.868 23.868h350.897c13.181 0 23.868-10.687 23.868-23.868v-28.672h85.879c13.184 0 23.871-10.684 23.871-23.868zM863.75 479.79h-303.16v-216.711c0-83.581 67.998-151.583 151.583-151.583 83.581 0 151.58 68.001 151.58 151.583v216.711zM973.497 427.246h-62.010v-107.736h62.010v107.736zM416.067 380.685c0 13.181-10.687 23.868-23.868 23.868h-109.747c-13.181 0-23.868-10.687-23.868-23.868s10.687-23.868 23.868-23.868h109.747c13.181 0 23.868 10.684 23.868 23.868zM348.635 111.502h-3.968c-13.181 0-23.868-10.687-23.868-23.868s10.687-23.868 23.868-23.868h3.968c13.181 0 23.868 10.687 23.868 23.868s-10.687 23.868-23.868 23.868z" />
<glyph unicode="&#xe913;" glyph-name="left-arrow" d="M10.854 473.6c-14.336-13.926-14.336-37.069 0-50.995l323.584-323.584c13.926-14.336 37.069-14.336 51.61 0 13.926 13.926 13.926 37.069 0 51.61l-261.734 260.915h863.437c20.070 0 36.045 16.589 36.045 36.659s-15.974 36.045-36.045 36.25h-863.437l261.734 261.734c13.926 13.926 13.926 37.069 0 50.995-14.336 14.336-37.683 14.336-51.61 0l-323.584-323.584z" />
<glyph unicode="&#xe914;" glyph-name="multimedia" d="M579.6 559.6h-98.6v98.6c0 22.6-18.2 40.8-40.8 40.8s-40.8-18.2-40.8-40.8v-98.6h-98.6c-22.6 0-40.8-18.2-40.8-40.8s18.2-40.8 40.8-40.8h98.6v-98.6c0-22.6 18.2-40.8 40.8-40.8s40.8 18.2 40.8 40.8v98.6h98.6c22.6 0 40.8 18.2 40.8 40.8s-18.4 40.8-40.8 40.8zM440.4 182.6c-185.8 0-336.4 150.4-336.4 336.2s150.6 336.2 336.4 336.2 336.2-150.6 336.2-336.2-150.6-336.2-336.2-336.2zM990 26.6l-226.6 226.6c59.4 72.2 95.2 164.8 95.2 265.6 0 231-187.2 418.4-418.4 418.4s-418.2-187.4-418.2-418.4 187.2-418.4 418.4-418.4c100.8 0 193.2 35.6 265.4 95l226.6-226.6c10.4-10.6 42.2-15.8 57.8 0 15.8 16 15.8 41.8-0.2 57.8z" />
<glyph unicode="&#xe915;" glyph-name="newspaper" d="M938.614 894.638h-88.219c-9.026 0-16.34-7.316-16.34-16.34s7.314-16.34 16.34-16.34h30.398c-6.159-10.181-9.711-22.11-9.711-34.853v-772.377c0-9.024 7.314-16.34 16.34-16.34s16.34 7.316 16.34 16.34v772.377c0 19.219 15.635 34.853 34.851 34.853 19.219 0 34.855-15.635 34.855-34.853v-772.377c0-47.446-38.6-86.047-86.047-86.047s-86.047 38.6-86.047 86.047v888.932c0 9.024-7.314 16.34-16.34 16.34h-750.845c-9.026 0-16.34-7.316-16.34-16.34v-888.932c0-65.466 53.263-118.727 118.73-118.727h750.843c65.466 0 118.727 53.261 118.727 118.727v772.377c0 37.239-30.297 67.534-67.536 67.534zM136.58-31.319c-47.446 0-86.047 38.6-86.047 86.047v872.592h718.162v-872.592c0-33.827 14.225-64.401 37.001-86.047h-669.116zM697.884 872.851h-576.545c-9.026 0-16.34-7.316-16.34-16.34v-163.404c0-9.024 7.314-16.34 16.34-16.34h576.545c9.026 0 16.34 7.316 16.34 16.34v163.404c0 9.024-7.314 16.34-16.34 16.34zM681.544 709.447h-543.864v130.723h543.864v-130.723zM697.884 644.085h-576.545c-9.026 0-16.34-7.316-16.34-16.34s7.314-16.34 16.34-16.34h576.545c9.026 0 16.34 7.316 16.34 16.34s-7.314 16.34-16.34 16.34zM697.884 513.362h-255.59c-9.026 0-16.34-7.316-16.34-16.34s7.314-16.34 16.34-16.34h255.593c9.026 0 16.34 7.316 16.34 16.34s-7.316 16.34-16.343 16.34zM376.932 513.362h-255.593c-9.026 0-16.34-7.316-16.34-16.34s7.314-16.34 16.34-16.34h255.593c9.026 0 16.34 7.316 16.34 16.34s-7.316 16.34-16.34 16.34zM697.884 448h-255.59c-9.026 0-16.34-7.316-16.34-16.34s7.314-16.34 16.34-16.34h255.593c9.026 0 16.34 7.316 16.34 16.34s-7.316 16.34-16.343 16.34zM376.932 448h-255.593c-9.026 0-16.34-7.316-16.34-16.34s7.314-16.34 16.34-16.34h255.593c9.026 0 16.34 7.316 16.34 16.34s-7.316 16.34-16.34 16.34zM697.884 382.638h-255.59c-9.026 0-16.34-7.316-16.34-16.34s7.314-16.34 16.34-16.34h255.593c9.026 0 16.34 7.316 16.34 16.34s-7.316 16.34-16.343 16.34zM697.884 317.277h-255.59c-9.026 0-16.34-7.316-16.34-16.34s7.314-16.34 16.34-16.34h255.593c9.026 0 16.34 7.316 16.34 16.34s-7.316 16.34-16.343 16.34zM442.294 219.234h168.444c9.026 0 16.34 7.316 16.34 16.34s-7.314 16.34-16.34 16.34h-168.444c-9.026 0-16.34-7.316-16.34-16.34s7.314-16.34 16.34-16.34zM610.735 55.83h-168.444c-9.026 0-16.34-7.316-16.34-16.34s7.314-16.34 16.34-16.34h168.444c9.026 0 16.34 7.316 16.34 16.34s-7.314 16.34-16.34 16.34zM697.884 121.191h-255.59c-9.026 0-16.34-7.316-16.34-16.34s7.314-16.34 16.34-16.34h255.593c9.026 0 16.34 7.316 16.34 16.34s-7.316 16.34-16.343 16.34zM376.932 382.638h-255.593c-9.026 0-16.34-7.316-16.34-16.34v-326.809c0-9.024 7.314-16.34 16.34-16.34h255.593c9.026 0 16.34 7.316 16.34 16.34v326.809c0 9.024-7.316 16.34-16.34 16.34zM360.592 55.83h-222.912v294.128h222.912v-294.128z" />
<glyph unicode="&#xe916;" glyph-name="phone-auricular-and-clock-delivery-symbol" d="M843.485 565.961c5.24-12.835-0.922-27.501-13.755-32.74 0 0-245.442-100.215-245.549-100.257-5.331-2.306-10.849-3.855-16.438-3.855-13.618 0-26.974 6.638-35.018 18.882l-121.781 185.443c-12.686 19.324-7.307 45.27 12.017 57.956 19.341 12.654 45.27 7.309 57.956-12.017l121.361-184.804 208.469 85.148c12.783 5.269 27.484-0.909 32.738-13.757zM567.711 927.25c-154.248 0-290.766-77.002-373.4-194.51 17.102-11.157 33.772-26.457 49.895-46.125 61.647 92.178 161.325 156.851 276.654 170.754l46.845-79.271 46.845 79.273c177.279-21.365 318.193-162.272 339.568-339.55l-79.285-46.851 79.286-46.853c-14.289-118.523-82.168-220.563-178.465-281.72 6.134-13.983 9.589-28.28 10.2-43.021 0.45-10.772-0.661-20.95-2.895-30.613 143.342 77.021 241.042 228.394 241.042 402.199 0 251.604-204.685 456.289-456.289 456.289zM684.151 175.787c-105.186 84.535-134.599 42.981-182.326-4.739-33.32-33.332-117.64 36.272-190.446 109.081-72.811 72.819-142.401 157.125-109.084 190.451 47.73 47.721 89.272 77.151 4.713 182.309-84.53 105.196-140.88 24.434-187.113-21.802-53.375-53.357-2.813-252.195 193.705-448.743 196.544-196.521 395.381-247.050 448.724-193.713 46.227 46.237 127.013 102.581 21.825 187.156zM131.296 595.854c-1.419-0.579-3.502-1.432-6.151-2.516-5.016-1.923-11.013-4.094-17.684-6.999-3.114-1.499-6.606-3.124-9.79-5.125-3.301-1.973-6.586-4.208-9.542-6.974-3.233-2.615-5.744-5.96-8.65-9.464-2.162-3.865-4.949-7.812-6.455-12.557-2.187-4.491-2.972-9.663-4.278-14.753-1.006-5.164-1.183-10.529-1.822-15.77-0.064-10.593 0.346-20.768 1.71-29.44 0.714-8.814 2.952-16.26 3.835-21.424 1.081-5.179 1.7-8.137 1.7-8.137s-1.591 2.573-4.374 7.076c-2.64 4.636-7.119 10.598-11.053 19.075-4.533 8.241-8.761 18.378-12.783 29.786-1.431 5.886-3.373 11.992-4.447 18.532-0.758 6.612-2.008 13.434-1.506 20.616-0.218 7.17 1.25 14.416 2.582 21.74 2.12 7.093 4.379 14.284 7.839 20.681 3.161 6.539 7.14 12.457 11.115 17.619 3.999 5.319 8.127 9.671 12.017 13.72 7.762 7.636 14.5 13.217 18.427 16.642 2.245 1.882 3.167 2.9 4.17 3.793 0.887 0.83 1.359 1.273 1.359 1.273l36.073-56.419c-0.002-0.005-0.796-0.341-2.289-0.975zM672.659 59.902c-3.537-4.407-9.089-11.222-16.615-18.946-4.012-3.802-8.15-7.924-13.299-11.814-4.826-4.031-10.69-7.72-16.663-11.182-6.156-3.383-12.706-6.288-19.625-8.448-6.845-2.083-13.953-3.768-20.93-4.334l-10.381-0.743-10.069 0.54c-6.626 0.084-12.795 1.849-18.738 2.839-5.928 1.101-11.304 3.303-16.451 4.78-5.145 1.389-9.761 3.925-14.033 5.614-8.647 3.435-14.843 7.402-19.516 9.859-4.59 2.528-7.212 3.974-7.212 3.974s2.957-0.453 8.132-1.248c5.142-0.689 12.649-2.314 21.342-2.486 4.379-0.092 8.868-0.855 13.844-0.393 4.911 0.381 10.033 0.136 15.161 1.051 5.092 1.017 10.374 1.308 15.276 3.161l7.362 2.259 6.832 3.192c18.037 8.737 27.852 24.129 33.538 36.976 2.814 6.628 4.831 12.477 6.35 17.055 1.653 4.819 2.6 7.573 2.6 7.573l58.427-32.721c0.002 0.002-1.938-2.384-5.331-6.557z" />
<glyph unicode="&#xe917;" glyph-name="photo" d="M960.010 703.999v-639.997h-768.007v639.997h768.007zM1024.002 768h-896.003v-768.003h896.003v768.003zM256.003 192.005h640.002l-128.004 383.994-191.998-255.999-127.997 127.999-192.002-255.995zM320 575.999c-35.375 0-63.997-28.628-63.997-64.003s28.622-63.997 63.997-63.997c35.375 0 64.003 28.622 64.003 63.997s-28.622 64.003-64.003 64.003zM0 895.999v-768.005h64.003v704.009h832.004v63.997h-896.007z" />
<glyph unicode="&#xe918;" glyph-name="play-button" d="M955.316 703.958c-141.36 244.843-454.453 328.737-699.276 187.351-244.843-141.34-328.74-454.421-187.355-699.254 141.34-244.843 454.424-328.75 699.25-187.378 244.846 141.389 328.783 454.453 187.381 699.28zM716.756 93.372c-195.845-113.111-446.335-45.992-559.413 149.892-113.105 195.845-45.962 446.331 149.889 559.387 195.858 113.105 446.335 45.992 559.42-149.886 113.088-195.874 45.966-446.309-149.895-559.394zM696.283 468.808l-268.054 156.335c-24.427 14.261-44.13 2.859-43.993-25.396l1.373-310.309c0.124-28.248 20.068-39.748 44.567-25.598l266.003 153.577c24.473 14.124 24.525 37.13 0.104 51.391z" />
<glyph unicode="&#xe919;" glyph-name="play-button_left" d="M255.918 4.788c244.834-141.489 557.805-57.378 699.293 187.456s57.378 557.805-187.456 699.293c-244.508 141.163-557.805 57.378-698.967-187.456-141.489-244.834-57.704-557.805 187.13-699.293zM157.463 652.898c113.126 195.933 363.502 263.091 559.435 149.965s263.091-363.502 149.965-559.435c-113.126-195.933-363.502-263.091-559.435-149.965s-263.091 363.502-149.965 559.435zM327.641 417.518l266.025-153.551c24.451-14.018 44.337-2.608 44.663 25.755l1.304 310.362c0 28.363-19.561 39.773-44.011 25.429l-267.981-156.159c-24.451-14.67-24.451-37.817 0-51.836z" />
<glyph unicode="&#xe91a;" glyph-name="right-arrow" d="M689.55 797.181c-13.95 14.438-37.168 14.438-51.606 0-13.95-13.95-13.95-37.168 0-51.086l261.674-261.674h-863.49c-20.129-0.033-36.128-16.032-36.128-36.16s15.999-36.648 36.128-36.648h863.49l-261.674-261.187c-13.95-14.438-13.95-37.689 0-51.606 14.438-14.438 37.689-14.438 51.606 0l323.622 323.622c14.438 13.95 14.438 37.168 0 51.086l-323.622 323.654z" />
<glyph unicode="&#xe91b;" glyph-name="round-done-button" d="M511.99 960c-282.324 0-511.99-229.683-511.99-512s229.665-512 511.99-512 512.010 229.683 512.010 512-229.686 512-512.010 512zM511.99 3.149c-245.289 0-444.841 199.562-444.841 444.851 0 245.292 199.549 444.849 444.841 444.849s444.854-199.56 444.854-444.849c0.003-245.289-199.565-444.851-444.854-444.851zM697.359 615.613l-264.015-264.003-106.724 106.701c-13.115 13.1-34.36 13.107-47.475-0.008-13.12-13.12-13.12-34.368 0-47.483l130.465-130.445c6.556-6.548 15.145-9.825 23.734-9.825s17.201 3.277 23.754 9.836c0.020 0.028 0.036 0.056 0.069 0.090l287.665 287.662c13.12 13.107 13.12 34.371 0 47.478-13.112 13.115-34.373 13.115-47.473-0.003z" />
<glyph unicode="&#xe91c;" glyph-name="shopping-cart" d="M307.2 140.8c-56.32 0-102.4-46.080-102.4-102.4s46.080-102.4 102.4-102.4 102.4 46.080 102.4 102.4-46.080 102.4-102.4 102.4zM0 960v-102.4h102.4l184.32-389.12-71.68-122.88c-5.12-15.36-10.24-35.84-10.24-51.2 0-56.32 46.080-102.4 102.4-102.4h614.4v102.4h-593.92c-5.12 0-10.24 5.12-10.24 10.24v5.122l46.080 87.040h378.88c40.96 0 71.68 20.48 87.040 51.2l184.32 332.798c10.24 10.24 10.24 15.36 10.24 25.6 0 30.72-20.48 51.2-51.2 51.2h-757.76l-46.080 102.4h-168.96zM819.2 140.8c-56.32 0-102.4-46.080-102.4-102.4s46.080-102.4 102.4-102.4 102.4 46.080 102.4 102.4-46.080 102.4-102.4 102.4z" />
<glyph unicode="&#xe91d;" glyph-name="social" d="M907.932 495.864c14.562 18.824 26.122 33.928 34.659 45.324 61.488 81.749 88.139 133.971 79.971 156.738l-3.205 5.332c-2.129 3.203-7.65 6.144-16.528 8.806-8.889 2.66-20.261 3.085-34.117 1.329l-153.545-1.083c-3.555 0.354-7.112 0.271-10.666-0.246-3.555-0.541-5.861-1.083-6.935-1.6-1.071-0.542-1.954-0.977-2.66-1.331l-2.129-1.6c-1.777-1.060-3.73-2.932-5.861-5.605-2.133-2.672-3.922-5.769-5.334-9.335-16.704-43.004-35.717-82.995-57.046-119.961-13.154-22.039-25.243-41.157-36.248-57.308-11.020-16.187-20.261-28.090-27.727-35.717-7.462-7.641-14.221-13.784-20.257-18.39-6.052-4.638-10.666-6.581-13.856-5.875-3.205 0.706-6.229 1.412-9.066 2.143-4.978 3.189-8.983 7.535-11.996 13.055-3.024 5.496-5.061 12.432-6.134 20.79-1.060 8.346-1.695 15.55-1.86 21.602-0.189 6.038-0.094 14.562 0.271 25.593 0.354 11.020 0.529 18.47 0.529 22.391 0 13.492 0.271 28.159 0.804 43.981 0.529 15.81 0.977 28.348 1.329 37.591 0.354 9.229 0.529 19.013 0.529 29.325 0 10.289-0.623 18.39-1.876 24.262-1.246 5.852-3.118 11.538-5.59 17.058-2.495 5.498-6.134 9.772-10.938 12.784-4.801 3.026-10.749 5.415-17.857 7.206-18.849 4.274-42.84 6.558-71.977 6.933-66.114 0.683-108.589-3.578-127.425-12.807-7.464-3.92-14.221-9.241-20.259-15.999-6.404-7.829-7.287-12.101-2.66-12.784 21.331-3.203 36.425-10.855 45.312-22.933l3.203-6.392c2.483-4.638 4.969-12.809 7.464-24.534 2.485-11.726 4.086-24.699 4.803-38.92 1.777-25.945 1.777-48.149 0-66.645-1.777-18.493-3.461-32.88-5.061-43.169-1.602-10.312-4.003-18.659-7.194-25.051-3.203-6.415-5.332-10.324-6.404-11.747-1.071-1.412-1.954-2.306-2.66-2.662-4.626-1.766-9.418-2.66-14.396-2.66-4.98 0-11.020 2.497-18.13 7.477-7.112 4.955-14.492 11.807-22.121 20.519-7.652 8.698-16.258 20.883-25.865 36.529-9.595 15.622-19.555 34.117-29.856 55.436l-8.523 15.47c-5.332 9.935-12.621 24.428-21.862 43.441s-17.424 37.4-24.522 55.188c-2.849 7.452-7.112 13.138-12.796 17.058l-2.66 1.6c-1.777 1.414-4.626 2.932-8.535 4.522-3.92 1.6-7.993 2.755-12.267 3.472l-146.083-1.060c-14.927 0-25.051-3.391-30.383-10.147l-2.131-3.191c-1.077-1.789-1.606-4.638-1.606-8.535 0-3.92 1.071-8.712 3.203-14.387 21.331-50.127 44.523-98.465 69.574-145.012 25.064-46.572 46.832-84.078 65.314-112.509 18.482-28.454 37.318-55.271 56.519-80.51s31.903-41.402 38.118-48.501c6.215-7.123 11.101-12.457 14.658-15.999l13.327-12.807c8.523-8.525 21.061-18.742 37.591-30.656 16.528-11.913 34.823-23.639 54.919-35.177 20.073-11.561 43.452-20.965 70.103-28.265 26.653-7.298 52.599-10.228 77.838-8.793h61.313c12.444 1.060 21.858 4.955 28.254 11.726l2.129 2.66c1.412 2.12 2.755 5.415 4.001 9.855 1.237 4.438 1.876 9.335 1.876 14.656-0.367 15.279 0.8 29.077 3.461 41.321 2.66 12.267 5.684 21.496 9.066 27.734 3.378 6.206 7.19 11.455 11.463 15.729 4.265 4.274 7.277 6.829 9.066 7.723 1.777 0.871 3.205 1.495 4.265 1.872 8.522 2.839 18.563 0.083 30.123-8.264 11.549-8.371 22.393-18.659 32.528-30.926 10.122-12.267 22.294-26.028 36.517-41.321 14.21-15.279 26.651-26.651 37.318-34.115l10.666-6.417c7.108-4.249 16.339-8.158 27.723-11.726 11.372-3.543 21.333-4.438 29.854-2.66l136.489 2.143c13.504 0 23.993 2.212 31.458 6.663 7.462 4.415 11.903 9.335 13.327 14.656 1.412 5.332 1.506 11.347 0.271 18.118-1.246 6.746-2.495 11.455-3.73 14.115-1.246 2.66-2.404 4.897-3.476 6.663-17.774 31.986-51.716 71.271-101.831 117.83l-1.071 1.060-0.529 0.541-0.529 0.519h-0.535c-22.756 21.685-37.143 36.26-43.183 43.735-11.016 14.196-13.513 28.594-7.462 43.167 4.238 11.051 20.225 34.336 47.947 69.89z" />
<glyph unicode="&#xe91e;" glyph-name="square" d="M544.458 318.369c-17.24-17.254-17.254-45.344 0-62.671 8.356-8.356 19.468-12.961 31.306-12.961s22.936 4.592 31.335 12.961l161.092 161.049c4 4.090 7.172 8.855 9.55 14.51 2.185 5.417 3.305 11.026 3.305 16.738s-1.107 11.322-3.455 17.137c-2.288 5.387-5.49 10.155-9.536 14.185l-160.959 160.959c-8.356 8.369-19.485 12.974-31.335 12.974-11.854 0-22.983-4.619-31.306-12.974-17.27-17.27-17.27-45.373 0-62.641l85.344-85.344h-585.519c-24.413-0.003-44.28-19.886-44.28-44.285s19.867-44.28 44.28-44.28h585.519l-85.341-85.358zM876.398 844.583h-497.963c-81.417 0-147.632-66.215-147.632-147.602l0.090-156.577h8.855c8.103-10.82 21.004-17.875 35.365-17.875 14.79 0 27.764 7.069 35.778 18.095l8.516 0.119v156.24c0 32.516 26.481 58.996 59.026 58.996h497.966c32.532 0 59.026-26.481 59.026-58.996v-497.977c0-32.546-26.494-58.996-59.026-58.996h-497.963c-32.546 0-59.026 26.451-59.026 58.996l-0.073 156.65h-8.885c-8.103 10.803-21.004 17.829-35.352 17.829-14.451 0-27.425-7.129-35.512-18.082l-8.798-0.133v-156.264c0-81.374 66.215-147.586 147.632-147.586h497.977c81.401 0 147.602 66.215 147.602 147.586v497.977c0 81.387-66.201 147.6-147.602 147.6z" />
<glyph unicode="&#xe91f;" glyph-name="suitcase" d="M1024 769.828c0 8.089-6.538 14.628-14.628 14.628h-248.687v29.246h-58.513v14.611h-29.257v-10.304c-4.413 2.444-9.309 5.899-15.479 10.35-24.223 17.466-60.826 43.87-145.422 43.87-86.879 0-124.929-27.268-150.104-45.319-4.143-2.968-7.67-5.454-10.824-7.466v8.899h-29.257v-14.63l-58.503-0.013v-29.244h-248.698c-8.089 0-14.628-6.538-14.628-14.628v-204.8c0-21.388 5.298-41.581 14.628-59.453v-467.177c0-8.089 6.538-14.628 14.628-14.628h965.487c8.091 0 14.628 6.54 14.628 14.63v467.175c9.333 17.874 14.628 38.064 14.628 59.453v204.8zM378.952 803.138c23.464 16.808 55.589 39.833 133.062 39.833 75.162 0 105.868-22.162 128.308-38.342 10.458-7.547 20.512-14.766 32.593-18.159v-2.014h-321.829v2.429c9.713 3.26 18.346 9.438 27.867 16.253zM29.257 755.2h965.487v-190.172c0-56.452-47.528-102.4-105.955-102.4l-289.28 0.015 0.264 48.159c0.030 4.388-1.932 8.556-5.296 11.351-22.031 18.212-51.142 28.247-81.949 28.247-31.451 0-61.001-10.401-83.149-29.301-3.262-2.78-5.15-6.847-5.15-11.133v-47.338h-289.033c-58.412 0-105.94 45.948-105.94 102.4 0 0 0 190.172 0 190.172zM453.488 404.116v98.772c16.221 11.821 36.937 18.257 59.040 18.257 21.564 0 41.866-6.159 57.959-17.453l-0.307-55.589c0-0.015 0-0.015 0-0.015l-0.25-43.974-116.442 0.002zM541.256 374.857v-73.144c0-29.697-18.782-47.879-29.242-55.72-10.445 7.841-29.271 26.083-29.271 55.72v73.144h58.513zM43.885 53.029v415.007c24.075-21.511 56.141-34.664 91.312-34.664h289.035v-43.885c0-8.089 6.538-14.628 14.628-14.628h14.628v-73.144c0-58.325 49.619-85.007 51.726-86.105 2.135-1.111 4.462-1.667 6.787-1.667s4.65 0.556 6.787 1.665c2.105 1.098 51.726 27.78 51.726 86.105v73.144h13.97c8.046 0 14.584 6.495 14.628 14.556l0.25 43.974 289.426-0.015c35.179 0 67.249 13.156 91.326 34.667v-415.009h-936.23z" />
<glyph unicode="&#xe920;" glyph-name="suitcase-1" d="M593.455 242.735c0-12.847-10.414-23.273-23.273-23.273h-116.363c-12.847 0-23.273 10.426-23.273 23.273v81.758l-430.547 97.814v-389.761c0-25.705 20.841-46.545 46.545-46.545h930.91c25.705 0 46.545 20.841 46.545 46.545v389.366l-430.545-97.477v-81.699zM977.455 684.183h-930.91c-25.704 0-46.545-20.84-46.545-46.545v-155.683l430.545-97.804v44.765c0 12.847 10.426 23.273 23.273 23.273h116.363c12.859 0 23.273-10.426 23.273-23.273v-44.823l430.547 97.479v156.066c0 25.705-20.841 46.545-46.545 46.545zM332.405 792.215c0 34.769 28.287 63.058 63.046 63.058h233.087c34.769 0 63.058-28.287 63.058-63.058v-61.475h54.725v61.475c0 64.954-52.83 117.783-117.783 117.783h-233.089c-64.942 0-117.783-52.83-117.783-117.783v-61.475h54.737l0.002 61.475z" />
<glyph unicode="&#xe921;" glyph-name="tool" d="M1002.521 51.168l-267.339 267.339c47.739 66.835 76.383 147.992 76.383 233.923 0 224.375-181.408 405.781-405.781 405.781s-405.783-181.408-405.783-405.781 181.408-405.781 405.781-405.781c85.93 0 167.088 28.643 233.923 76.383l267.339-267.339c23.868-23.868 66.835-23.868 95.478 0v0c28.643 28.641 28.643 66.835 0 95.476zM405.781 242.124c-171.861 0-310.303 138.445-310.303 310.303 0 171.861 138.442 310.303 310.303 310.303s310.303-138.442 310.303-310.303c0.002-171.858-138.442-310.303-310.303-310.303z" />
</font>
</defs>
</svg>
